<?xml version="1.0" encoding="UTF-8"?>
<svg width="480px" height="270px" viewBox="0 0 480 270" version="1.1" xmlns="http://www.w3.org/2000/svg" xmlns:xlink="http://www.w3.org/1999/xlink">
    <!-- Generator: Sketch 48.2 (47327) - http://www.bohemiancoding.com/sketch -->
    <title>Artboard 2</title>
    <desc>Created with Sketch.</desc>
    <defs>
        <path d="M160.86093,28.4326371 C160.400162,27.9581204 159.804511,27.7519429 159.035306,27.7996318 C157.030231,27.925616 155.470362,29.431732 154.179786,31.4977777 C153.14176,33.1592979 152.27776,35.1828743 151.497472,37.1452381 C151.366598,37.4745527 151.234546,37.7955633 151.102022,38.1120659 C148.524642,44.2772241 145.673961,48.0230589 142.434668,49.4914508 C141.987576,49.6940694 141.53341,49.8551678 141.071227,49.9714244 C140.030607,50.2333576 138.490546,50.1524525 136.540886,50.0494824 C134.813594,49.9588497 132.855445,49.8558796 130.856738,49.9832873 C120.290659,50.6589991 118.354441,49.1412575 116.113087,47.3848339 C115.211358,46.6782786 114.278974,45.9475228 112.644118,45.3308884 C106.96162,43.1867847 95.0936463,42.5103612 94.1619694,42.5103612 C93.8947991,42.5103612 92.9753843,42.4481995 91.4523013,42.3452293 C86.3383362,41.9995439 74.3625983,41.1895439 67.5383188,41.560616 C61.7388603,41.8761696 55.6533668,40.1126283 51.5677598,38.577804 C49.0196201,37.6209411 47.247524,36.7528128 46.8134017,36.5345351 C44.7722489,35.5074438 38.2660742,29.1216353 35.1420917,25.7312135 C34.4938559,25.0275053 33.9878122,24.4497812 33.7013057,24.0791837 C33.4574803,23.7638673 33.2388865,23.5228128 33.0276026,23.2895879 C32.2388253,22.4193243 31.7466943,21.8729183 31.5483799,19.4894209 C31.5092358,19.0182258 31.4814105,18.4744297 31.4653755,17.8426107 C31.4354279,16.6836037 31.443917,15.2301591 31.4910786,13.3710026 C31.4941441,13.2559323 31.4953231,13.1456072 31.4972096,13.032435 C31.6667555,4.30298858 29.6838472,0.819561511 29.6633319,0.785159051 C29.6421092,0.753603691 28.899786,-0.352969244 27.9688166,0.115378735 C27.2203624,0.491907733 25.6531834,3.16296221 24.1374105,5.74599385 C24.1126507,5.78870035 24.0874192,5.83140685 24.0624236,5.87411336 C23.7014017,6.48956151 23.3384934,7.10738225 22.9762926,7.71357733 C22.5185895,8.47921002 22.0623013,9.22633656 21.6126157,9.92529965 C21.3881266,10.2745439 21.1657598,10.610739 20.9452795,10.9322241 C20.7533319,11.2124262 20.5630349,11.4805281 20.3750961,11.7346318 C19.7164847,12.6255369 19.0859345,13.3418199 18.50231,13.7805105 C18.4039782,13.8545351 18.3068253,13.9219165 18.2110873,13.979333 C17.5048428,14.4061608 16.7278559,14.133551 15.6525721,13.7567847 C15.6301703,13.7487179 15.6061179,13.7404139 15.5834803,13.7325844 C15.4113406,13.6720835 15.2297686,13.6089728 15.0342838,13.5432522 C14.8048428,13.4663805 14.3648253,13.153674 13.7849738,12.6808181 C13.2180917,12.2186388 12.5165633,11.6027162 11.7362751,10.8911784 C8.76320961,8.18073902 4.67972489,4.12575659 2.81306987,2.25687258 C2.7569476,4.12623111 2.72181223,8.22629262 3.40424017,9.77084446 C3.41131441,9.78697803 3.41815284,9.80619596 3.42522707,9.8230413 C4.28592576,11.86892 4.5599345,18.4298251 4.61016157,19.8638146 C5.41898253,20.2458005 5.43242358,20.5810466 5.43737555,20.6980149 C5.44162009,20.8028831 5.4180393,21.0614947 5.11007424,21.2240167 C4.97259825,21.3561696 4.85846725,21.8240431 4.80045852,22.2855105 C4.74693013,22.711152 4.74150655,23.1315738 4.81083406,23.2772504 C4.95821397,23.5738234 4.97283406,23.8637531 4.94972489,24.1268726 C4.93864192,24.2526195 4.9200131,24.3729095 4.90162009,24.4834719 C4.87756769,24.6284367 4.85493013,24.7653348 4.85493013,24.8887091 C4.85493013,25.097022 4.90845852,25.6972856 4.96670306,26.2868726 C5.01174236,26.7445439 5.05984716,27.1953348 5.0881441,27.4520483 L5.11313974,27.676732 L3.52544541,29.0077513 L-0.00011790393,31.6690782 C0.0262925764,31.7293418 0.0569475983,31.7988585 0.0897248908,31.8735949 C0.506868996,32.8212047 1.41637991,34.8310202 1.92761135,35.5314069 C2.12545415,35.683964 3.13023144,36.0536125 4.00059825,36.3229007 C4.16967249,36.3005984 4.32860699,36.2813805 4.47810917,36.2647724 L4.47834498,36.2647724 C5.24047598,36.1798339 5.7599607,36.1658357 6.11720961,36.1926459 C6.81685153,36.2455545 6.89537555,36.4557654 6.95079039,36.6045264 L7.04817904,36.8669341 L6.84491266,37.0584016 C6.8100131,37.0916178 6.76733188,37.133138 6.72017031,37.1803524 C6.55934934,37.3412135 6.3391048,37.5765738 6.12970742,37.8335246 C5.87173362,38.1495527 5.63144541,38.4976107 5.54254585,38.7778128 L5.47439738,38.9920571 L5.37276419,39.3121186 L5.00820524,39.0644209 L4.91058079,38.9979886 C4.81460699,38.9327425 4.71368122,38.8682083 4.61582096,38.8088937 L5.60079039,41.7824525 L5.60550655,41.7962135 L5.49349782,41.9651415 C5.48642358,41.9767671 5.43336681,42.0619429 5.38007424,42.2031116 C5.29046725,42.4387091 5.1989738,42.8299482 5.31404803,43.2930764 C5.48029258,43.9623822 6.63221397,44.6407039 7.60397817,44.8853172 C8.21071179,45.0383489 10.3973581,44.5320395 11.6322838,44.1768638 L11.8485197,44.1149394 L12.0190087,44.2622768 C12.0583886,44.2959675 12.6080568,44.7728568 13.2942576,45.4881907 C13.810441,46.0260554 14.4037336,46.6986828 14.9168515,47.4211344 C15.2521703,47.8935158 15.4969389,48.3478656 15.6770961,48.7623559 C16.0904672,49.7118638 16.1600306,50.4459411 16.1713493,50.676319 C16.3682489,51.2780062 18.17831,56.6877337 20.5646856,59.743384 C23.0262838,62.8953612 22.2695764,64.7158445 21.9059607,65.590616 C21.8720044,65.6724701 21.8413493,65.7450712 21.8187118,65.8093682 C21.7564585,66.6867496 24.2961092,74.3029798 25.3402664,76.9294297 C25.7152009,77.8725316 26.4469127,78.9010466 27.2217773,79.9902996 C27.3028952,80.1041837 27.3842489,80.2187794 27.4656026,80.3333752 C28.3847817,81.6311784 29.2749563,82.9574525 29.5442489,84.2189552 C29.5741965,84.3589376 29.5989563,84.4982083 29.6126332,84.6362926 C29.8078821,86.6005545 30.9081616,91.2894912 31.9051572,95.28421 C32.3350349,97.0071801 32.7453406,98.5998954 33.0558996,99.7902206 C33.3839083,101.04769 33.6001441,101.855554 33.608869,101.888296 L33.6234891,101.941917 L33.6234891,103.375431 L33.6234891,104.681776 L33.6234891,105.586917 L33.6234891,108.445168 L33.6234891,112.159922 C33.7850175,113.004799 34.372179,116.09414 34.6518472,117.774166 C34.7435764,118.324131 34.8025284,118.723911 34.8025284,118.843015 C34.8025284,119.164025 34.3434105,121.272778 33.8755677,123.100141 C32.85169,127.098656 32.4510524,127.367707 32.2583974,127.496776 C32.1489825,127.570326 32.1350699,127.600695 32.1218646,127.630115 C32.0445197,127.799755 31.9966507,127.898929 31.8110699,127.957532 C31.783952,127.96631 31.7535328,127.97414 31.720048,127.980783 C31.4257598,128.041284 30.8638297,128.041996 29.6685197,128.041996 C28.2715939,128.041996 28.1852882,128.195264 28.0662052,128.407848 C27.8650611,128.765159 27.6132183,129.113217 26.7499258,129.438973 C26.2134629,129.641354 25.8208428,130.161662 25.5374017,130.770229 C25.2079782,131.476785 25.0264061,132.303393 24.9448166,132.89559 L35.1555328,132.89559 L35.2842838,132.89559 C35.9346419,132.754421 36.8889563,132.408024 37.0552009,132.100774 C37.0702926,132.07254 37.0686419,132.064948 37.0606245,132.044307 C36.9700742,131.809184 37.0327991,131.118525 37.1834803,130.198437 C37.4442838,128.605247 37.970607,126.323296 38.4323188,124.50044 C38.743821,123.269544 39.026083,122.247909 39.1762926,121.794509 C39.45431,120.954614 40.1553668,120.627672 40.6670699,120.38899 C41.3070524,120.090282 41.3768515,120.008428 41.2896026,119.656811 C41.2457424,119.480765 41.2146157,118.966152 41.1943362,118.209535 C41.1353843,115.99117 41.1709913,111.682321 41.2598908,107.640388 C41.3226157,104.787119 41.4119869,102.067426 41.5136201,100.312663 C41.5956812,98.8950448 41.6572271,97.5438585 41.6980218,96.2840167 C41.7352795,95.1373471 41.7548515,94.0684982 41.756738,93.0938409 C41.7576812,92.6862311 41.755559,92.2935685 41.7501354,91.9210729 L41.7487205,91.4429974 L42.0951223,91.3777513 C42.2285895,91.3542627 42.3245633,91.374667 42.403559,91.4370659 C42.529952,91.5369517 42.6134279,91.7459763 42.736048,92.0598691 C42.7376987,92.0641397 42.7393493,92.0681731 42.741,92.072681 C42.8499432,92.3521714 43.0013319,92.7524262 43.1807817,93.2326371 C43.4288515,93.8962487 43.7309214,94.71479 44.0483188,95.5798339 C44.1888603,95.9622944 44.3317598,96.3528216 44.4748952,96.7445351 C45.4084585,99.2986213 46.3321179,101.854131 46.3321179,101.854131 L46.3571135,101.923648 L46.3571135,101.997672 C46.3571135,102.039192 46.3625371,104.328024 46.5962227,107.343815 C46.7881703,109.825774 47.1345721,112.799333 47.7604061,115.42341 C48.1332183,116.986468 48.2164585,118.551899 48.1325109,120.029544 C47.9396201,123.429456 46.8586769,126.363393 46.3564061,127.725018 C46.2347293,128.054333 46.1387555,128.314368 46.1088079,128.43537 C45.9234629,129.180836 45.2073144,129.336952 44.4491921,129.502083 C43.8030786,129.643015 42.9989738,129.818112 42.151952,130.350519 C41.3945371,130.827171 40.9778646,131.674421 40.7472445,132.459509 C40.5892533,132.997136 40.5175677,133.505818 40.486441,133.845335 C40.8212882,133.846284 41.323559,133.848182 41.9218035,133.852453 C42.1382751,133.854113 42.3658297,133.856011 42.6044672,133.858147 C43.0341092,133.861943 43.4948777,133.867637 43.9676725,133.87428 C46.0335852,133.904175 48.3310611,133.964201 49.2924498,134.085203 C50.4660655,134.231354 51.0819956,133.269034 51.6613755,132.181917 C51.7703188,131.977874 51.8641703,131.801591 51.9584934,131.659236 C52.0799345,131.435502 52.3077249,130.117769 52.5270262,128.792444 C52.5593319,128.598366 52.5911659,128.403577 52.6225284,128.212584 C52.7213319,127.612558 52.8177773,127.035546 52.9132795,126.479649 C53.0160917,125.879149 53.1177249,125.304509 53.2193581,124.766644 C53.4693144,123.439895 53.7190349,122.326679 53.9854978,121.504579 C54.1727293,120.92638 54.3684498,120.489351 54.5790262,120.23501 C55.0963886,119.610308 55.2128777,118.451776 55.11431,117.206881 C55.0534716,116.440062 54.9115153,115.640264 54.7306507,114.911644 C54.4905983,113.945765 54.0107293,110.104315 54.0107293,109.352681 C54.0107293,109.207479 54.074869,108.333656 54.1781528,107.024939 C54.5872795,101.832778 55.6087991,89.7852733 55.6627991,89.1501327 L55.6863799,88.8696933 L59.0155153,87.8148427 L60.488607,87.3479183 L62.9865197,86.9144473 L67.1669214,86.189623 C67.31831,86.0152381 67.6163712,85.7388322 68.1669825,85.4235158 C69.5405633,84.6367671 72.4914629,83.6063541 78.6967467,83.3090694 C79.7845284,83.2568726 80.8128865,83.2108445 81.787952,83.1695615 C81.9098646,83.1643418 82.034607,83.1588849 82.1551048,83.1541397 C82.6559607,83.1330237 83.1393668,83.1138058 83.6093319,83.0955369 C84.663393,83.0544912 85.6410524,83.0196142 86.5364148,82.9906687 C91.2766245,82.836688 93.7726507,82.8340782 93.8082576,82.8340782 L93.8610786,82.8340782 L94.0405284,82.8340782 L94.1629127,83.0324262 C94.1761179,83.0535422 94.2077162,83.1045527 94.2527555,83.1781028 C94.6790961,83.8694736 96.4594454,86.7661608 98.1784847,89.6808796 C99.4108166,91.7708884 100.611079,93.8687267 101.256013,95.1665299 C102.49259,97.6541837 105.885157,101.228955 108.130284,103.594421 C108.850913,104.353648 109.47321,105.00943 109.91983,105.51479 C110.310799,105.957277 110.687148,106.472839 111.04652,107.038938 C112.573611,109.443788 113.791795,112.77276 114.491437,115.413208 C115.464144,119.083595 112.693402,124.724412 112.57479,124.962382 C112.508293,125.106635 110.79562,128.733129 107.994694,128.989368 C106.865175,129.092813 105.697218,129.526047 104.714371,130.006495 C103.949175,130.380651 103.29693,130.782567 102.867288,131.081512 C102.648459,131.234069 102.485279,131.360054 102.395908,131.440959 C102.426563,131.685098 102.881672,132.332338 103.416485,132.89559 L110.402764,132.89559 L114.454415,132.89559 C114.659332,131.875616 114.853873,130.783516 114.855288,130.546257 C114.82652,130.414342 114.837838,130.249922 114.887358,130.048252 C114.990406,129.630203 115.26583,129.044175 115.728485,128.215906 C116.089035,127.571038 116.561358,126.781205 117.15583,125.807259 C117.271376,125.61769 117.391638,125.42124 117.516616,125.217672 C118.55252,123.528156 119.623795,121.780985 119.816921,121.100291 L119.881061,120.874421 C120.567969,118.451064 120.962948,117.234166 121.349908,116.874008 C121.758563,116.416337 122.935009,112.696363 123.183079,111.032707 C123.228118,110.730203 123.242974,110.494843 123.216328,110.360554 C122.359638,109.661117 118.882179,105.123314 117.00562,101.547356 C117.005384,101.547356 117.005384,101.547119 117.005384,101.547119 C116.313524,100.228911 115.837428,99.0404842 115.79286,98.2245527 C115.633454,95.297971 116.722415,92.6895527 116.769105,92.5799394 L116.822633,92.4534807 L117.017882,91.9922504 L117.455777,92.4549042 C119.462031,94.574333 121.749131,96.9250888 122.230651,97.3115826 C123.08121,97.3765914 124.532843,98.0719956 126.26155,99.1287443 C127.468179,99.8661432 128.80969,100.780774 130.176197,101.780106 C130.627769,102.110133 131.081699,102.449412 131.534686,102.795098 C131.554729,102.810282 131.574773,102.825704 131.594581,102.840888 C134.794965,105.286073 137.924371,108.024034 139.581393,109.897663 C140.74652,111.215159 140.93045,111.811152 140.919367,112.168226 C141.037742,112.456732 141.728659,113.536257 142.458721,114.676521 C145.752956,119.821468 148.913489,125.003191 149.012528,127.755388 C149.027148,128.165133 148.975507,128.521969 148.844633,128.815932 C148.628397,129.301837 148.211017,129.606714 147.637769,129.697584 C146.526878,129.874342 145.677734,130.359772 145.113917,131.141539 C144.996249,131.304772 144.895795,131.476073 144.807838,131.65117 C144.514022,132.237435 144.375603,132.870678 144.316651,133.430133 C144.262886,133.93834 144.273734,134.385572 144.294013,134.676214 C145.167681,134.681196 147.336642,134.705396 148.662354,134.822602 C148.970319,134.849887 149.233009,134.882154 149.42307,134.920352 C149.448066,134.925572 149.475655,134.929131 149.502773,134.932927 C150.469585,135.069113 152.945803,134.495897 154.086406,134.013788 C154.378336,133.890414 154.583961,133.773208 154.653052,133.675458 C154.878956,133.256222 154.675926,130.447321 154.355699,128.07189 C153.88031,126.603024 153.357996,124.99631 152.817524,123.34428 C152.293559,121.742312 151.753087,120.097874 151.222284,118.494008 C149.610537,113.622382 148.09217,109.129184 147.415166,107.357576 C147.370127,107.239421 147.328624,107.132892 147.291367,107.039649 C147.203882,106.821846 147.137856,106.672373 147.096354,106.603331 C146.605873,105.780757 142.937175,102.672198 140.590886,100.783859 L140.562118,100.758235 C140.075175,100.285853 136.94341,97.1893946 135.377646,94.2708796 C134.714083,93.0345264 134.329716,91.8299657 134.549725,90.8707302 C135.228616,87.9106951 134.08707,82.0902733 134.075515,82.0319077 C134.03024,81.8034279 134.076223,81.5521714 134.15286,81.1360202 C134.349524,80.0664596 134.758886,77.840739 134.188231,72.8632961 C134.080939,71.9270747 133.856921,70.9913278 133.556031,70.0781204 C132.441131,66.6950536 130.266275,63.6294385 129.008476,62.0350624 C128.442773,61.3183049 128.061236,60.8966968 128.047087,60.8810378 L127.659655,60.4582434 L128.177489,60.2152909 C128.230782,60.1903787 133.529856,57.7053348 136.111009,56.7608093 C137.776284,56.1517671 140.576502,56.1928128 142.495507,56.3154754 C143.573148,56.3842803 144.373952,56.4787091 144.536188,56.4986388 C144.735917,56.502435 146.618135,56.4934192 148.930467,55.5937355 C150.45638,55.0001151 151.817463,54.1675756 153.011122,53.1091661 C154.359236,51.9138585 155.492764,50.4295703 156.397323,48.6598603 C156.509803,48.4401591 156.618983,48.2211696 156.726983,48.0021801 C156.902659,47.6465299 157.071969,47.2920659 157.237035,46.9387882 C157.263445,46.8820835 157.289384,46.8253787 157.315795,46.768674 C157.379227,46.6315387 157.443367,46.4941661 157.505384,46.357268 C160.718031,39.2668023 161.831515,32.9234631 161.895419,32.5485949 C161.911454,32.3231995 162.071096,29.6782434 160.86093,28.4326371" id="path-1"></path>
    </defs>
    <g id="StyleGuide" stroke="none" stroke-width="1" fill="none" fill-rule="evenodd">
        <g id="Artboard-2">
            <g id="Logo/Icon+Text/Small" transform="translate(36.000000, 51.000000)">
                <g id="Logo/Full/Silloutte" transform="translate(227.287143, 17.482759)">
                    <mask id="mask-2" fill="white">
                        <use xlink:href="#path-1"></use>
                    </mask>
                    <use id="Fill-1" fill="#FFFFFF" fill-rule="evenodd" xlink:href="#path-1"></use>
                    <g id="Colour/Palette/Primary/Water" mask="url(#mask-2)" fill="#081937" fill-rule="evenodd">
                        <rect id="Rectangle-2" x="0" y="0" width="162" height="135"></rect>
                    </g>
                </g>
                <g id="Logo/Word/Kelpie/Blue" transform="translate(3.505714, 40.210345)">
                    <path d="M14.3975904,78.3908388 L14.3975904,15.5106941 C14.3975904,14.7021422 14.8046798,14.2978723 15.6188708,14.2978723 L19.8463798,14.2978723 C20.6605708,14.2978723 21.0676602,14.7021422 21.0676602,15.5106941 L21.0676602,46.6708845 C21.0676602,46.8574734 21.1302894,46.9818641 21.2555495,47.0440604 C21.3808097,47.1062567 21.5060679,47.0440614 21.6313281,46.8574725 L51.1299469,14.9509302 C51.5057273,14.5155561 52.0067604,14.2978723 52.6330612,14.2978723 L57.3302935,14.2978723 C58.0192244,14.2978723 58.3636846,14.5466538 58.3636846,15.0442242 C58.3636846,15.2930094 58.2384263,15.5417909 57.987906,15.7905761 L35.3472464,41.2598335 C35.1593562,41.5086187 35.1280416,41.7263025 35.2533017,41.9128914 L59.9607436,78.1109569 C60.1486338,78.359742 60.2425775,78.6085235 60.2425775,78.8573087 C60.2425775,79.3548791 59.8981173,79.6036606 59.2091864,79.6036606 L54.3240648,79.6036606 C53.6977641,79.6036606 53.196731,79.3548791 52.8209505,78.8573087 L30.7439587,46.6708845 C30.4934384,46.2977067 30.2742364,46.266609 30.0863462,46.5775905 L21.2555495,55.8136949 C21.1302894,56.0624801 21.0676602,56.2801638 21.0676602,56.4667527 L21.0676602,78.3908388 C21.0676602,79.1993907 20.6605708,79.6036606 19.8463798,79.6036606 L15.6188708,79.6036606 C14.8046798,79.6036606 14.3975904,79.1993907 14.3975904,78.3908388 Z M89.2449235,72.7465528 C91.280401,71.533725 92.8617868,69.8389012 93.9891281,67.6620307 C94.1143883,67.3510492 94.3335903,67.1333654 94.6467407,67.0089728 C94.959891,66.8845802 95.2730367,66.9156779 95.5861871,67.1022668 L98.3105818,68.5949706 C99.0621428,69.0303447 99.2500302,69.5590053 98.8742497,70.1809683 C97.3711279,73.2907833 95.1164789,75.7630491 92.1102352,77.5978399 C89.1039915,79.4326308 85.5341307,80.3500124 81.4005456,80.3500124 C77.0164402,80.3500124 73.3213211,79.3237889 70.3150774,77.271311 C67.3088337,75.2188331 65.1481284,72.3578462 63.8328968,68.6882645 C62.6429254,65.5784496 62.0479486,61.2869692 62.0479486,55.8136949 C62.0479486,53.139254 62.0949204,51.0090627 62.1888655,49.423057 C62.2828106,47.8370514 62.5176699,46.3599114 62.8934504,44.9915928 C63.9581617,40.9488333 66.1032096,37.7146743 69.3286586,35.2890186 C72.5541076,32.8633629 76.4527714,31.6505532 81.024767,31.6505532 C86.4735837,31.6505532 90.7480224,33.049949 93.8482112,35.8487825 C96.9484,38.647616 98.9368751,42.5970217 99.8136962,47.6971183 C100.189477,49.6873999 100.377364,52.7971683 100.377364,57.0265166 C100.377364,57.8350685 99.9702747,58.2393384 99.1560837,58.2393384 L69.093797,58.2393384 C68.7806466,58.2393384 68.6240738,58.3948268 68.6240738,58.7058083 C68.6240738,61.8156233 68.8119612,64.0857542 69.1877416,65.5162691 C69.8766725,68.3151026 71.3327999,70.538587 73.5561677,72.1867889 C75.7795354,73.8349909 78.5821893,74.6590795 81.9642135,74.6590795 C84.7825669,74.5968832 87.209446,73.9593807 89.2449235,72.7465528 Z M73.3213061,39.8137767 C71.3171436,41.3997824 70.0019317,43.5299737 69.3756309,46.2044146 C68.9998505,47.4483406 68.7493339,49.5629831 68.6240738,52.5484055 C68.6240738,52.859387 68.7806466,53.0148754 69.093797,53.0148754 L93.237571,53.0148754 C93.5507214,53.0148754 93.7072942,52.859387 93.7072942,52.5484055 C93.582034,49.8117683 93.3941466,47.8215165 93.1436263,46.5775905 C92.4546955,43.778757 91.0611972,41.5552727 88.9630896,39.9070707 C86.864982,38.2588688 84.2189009,37.4347802 81.024767,37.4347802 C77.8932632,37.4347802 75.3254685,38.2277711 73.3213061,39.8137767 Z M108.007303,78.3908388 L108.007303,15.5106941 C108.007303,14.7021422 108.414393,14.2978723 109.228584,14.2978723 L113.456093,14.2978723 C114.270284,14.2978723 114.677373,14.7021422 114.677373,15.5106941 L114.677373,78.3908388 C114.677373,79.1993907 114.270284,79.6036606 113.456093,79.6036606 L109.228584,79.6036606 C108.414393,79.6036606 108.007303,79.1993907 108.007303,78.3908388 Z M162.421676,56.0002828 C162.421676,61.1625757 162.045901,65.0186885 161.29434,67.5687367 C160.166999,71.5492999 158.100237,74.6746171 155.093993,76.9447821 C152.08775,79.214947 148.361316,80.3500124 143.914581,80.3500124 C141.472008,80.3500124 139.217359,79.8679984 137.150566,78.9039557 C135.083774,77.9399131 133.361472,76.5560661 131.983611,74.7523735 C131.85835,74.5657846 131.733092,74.5035892 131.607832,74.5657855 C131.482572,74.6279818 131.419943,74.7523725 131.419943,74.9389614 L131.419943,96.4898715 C131.419943,97.2984234 131.012853,97.7026933 130.198662,97.7026933 L125.971153,97.7026933 C125.156962,97.7026933 124.749873,97.2984234 124.749873,96.4898715 L124.749873,33.6097269 C124.749873,32.801175 125.156962,32.3969051 125.971153,32.3969051 L130.198662,32.3969051 C131.012853,32.3969051 131.419943,32.801175 131.419943,33.6097269 L131.419943,37.1548982 C131.419943,37.3414871 131.482572,37.450329 131.607832,37.4814272 C131.733092,37.5125253 131.85835,37.4658788 131.983611,37.3414862 C133.361472,35.5377935 135.068116,34.1383977 137.103594,33.1432569 C139.139071,32.1481162 141.409377,31.6505532 143.914581,31.6505532 C148.298686,31.6505532 151.978148,32.7700698 154.953076,35.0091366 C157.928005,37.2482034 159.979109,40.2957764 161.106451,44.151947 C161.983272,46.9507805 162.421676,50.9001862 162.421676,56.0002828 Z M155.23491,63.1372725 C155.579376,61.4268743 155.751606,59.0479015 155.751606,56.0002828 C155.751606,53.0770567 155.626348,50.791377 155.375827,49.1431751 C155.125307,47.4949731 154.686903,46.0178332 154.060602,44.7117109 C153.309041,42.4726441 151.978172,40.7000761 150.067955,39.3939538 C148.157738,38.0878315 145.887431,37.4347802 143.256968,37.4347802 C140.751765,37.4347802 138.653689,38.0878315 136.962677,39.3939538 C135.271665,40.7000761 134.019082,42.4415464 133.204891,44.6184169 C132.64122,45.8623429 132.234131,47.323934 131.983611,49.0032341 C131.73309,50.6825342 131.607832,53.0148604 131.607832,56.0002828 C131.607832,58.9857052 131.73309,61.3335803 131.983611,63.0439786 C132.234131,64.7543768 132.672535,66.2626145 133.298836,67.5687367 C134.050397,69.6834109 135.287322,71.3782347 137.009649,72.6532588 C138.731976,73.928283 140.78308,74.5657855 143.163023,74.5657855 C145.668226,74.5657855 147.828932,73.9438318 149.645204,72.6999058 C151.461476,71.4559798 152.776688,69.8078026 153.590879,67.7553247 C154.34244,66.3870061 154.890445,64.8476708 155.23491,63.1372725 Z M171.593613,22.0936234 C170.779563,21.3121581 170.372544,20.3016577 170.372544,19.0620921 C170.372544,17.8225264 170.779563,16.8254994 171.593613,16.0709812 C172.407664,15.3164629 173.465914,14.9392095 174.768395,14.9392095 C176.070875,14.9392095 177.129125,15.3164629 177.943176,16.0709812 C178.757226,16.8254994 179.164246,17.8225264 179.164246,19.0620921 C179.164246,20.3016577 178.757226,21.3121581 177.943176,22.0936234 C177.129125,22.8750887 176.070875,23.2658155 174.768395,23.2658155 C173.465914,23.2658155 172.407664,22.8750887 171.593613,22.0936234 Z M170.803172,78.3908388 L170.803172,33.6097269 C170.803172,32.801175 171.210261,32.3969051 172.024452,32.3969051 L176.251961,32.3969051 C177.066153,32.3969051 177.473242,32.801175 177.473242,33.6097269 L177.473242,78.3908388 C177.473242,79.1993907 177.066153,79.6036606 176.251961,79.6036606 L172.024452,79.6036606 C171.210261,79.6036606 170.803172,79.1993907 170.803172,78.3908388 Z M213.239602,72.7465528 C215.27508,71.533725 216.856466,69.8389012 217.983807,67.6620307 C218.109067,67.3510492 218.328269,67.1333654 218.64142,67.0089728 C218.95457,66.8845802 219.267716,66.9156779 219.580866,67.1022668 L222.305261,68.5949706 C223.056822,69.0303447 223.244709,69.5590053 222.868929,70.1809683 C221.365807,73.2907833 219.111158,75.7630491 216.104914,77.5978399 C213.09867,79.4326308 209.52881,80.3500124 205.395224,80.3500124 C201.011119,80.3500124 197.316,79.3237889 194.309756,77.271311 C191.303513,75.2188331 189.142807,72.3578462 187.827576,68.6882645 C186.637604,65.5784496 186.042627,61.2869692 186.042627,55.8136949 C186.042627,53.139254 186.089599,51.0090627 186.183544,49.423057 C186.27749,47.8370514 186.512349,46.3599114 186.888129,44.9915928 C187.952841,40.9488333 190.097889,37.7146743 193.323337,35.2890186 C196.548786,32.8633629 200.44745,31.6505532 205.019446,31.6505532 C210.468263,31.6505532 214.742701,33.049949 217.84289,35.8487825 C220.943079,38.647616 222.931554,42.5970217 223.808375,47.6971183 C224.184156,49.6873999 224.372043,52.7971683 224.372043,57.0265166 C224.372043,57.8350685 223.964954,58.2393384 223.150763,58.2393384 L193.088476,58.2393384 C192.775325,58.2393384 192.618753,58.3948268 192.618753,58.7058083 C192.618753,61.8156233 192.80664,64.0857542 193.182421,65.5162691 C193.871351,68.3151026 195.327479,70.538587 197.550847,72.1867889 C199.774214,73.8349909 202.576868,74.6590795 205.958892,74.6590795 C208.777246,74.5968832 211.204125,73.9593807 213.239602,72.7465528 Z M197.315985,39.8137767 C195.311822,41.3997824 193.996611,43.5299737 193.37031,46.2044146 C192.994529,47.4483406 192.744013,49.5629831 192.618753,52.5484055 C192.618753,52.859387 192.775325,53.0148754 193.088476,53.0148754 L217.23225,53.0148754 C217.5454,53.0148754 217.701973,52.859387 217.701973,52.5484055 C217.576713,49.8117683 217.388825,47.8215165 217.138305,46.5775905 C216.449374,43.778757 215.055876,41.5552727 212.957768,39.9070707 C210.859661,38.2588688 208.21358,37.4347802 205.019446,37.4347802 C201.887942,37.4347802 199.320147,38.2277711 197.315985,39.8137767 Z" id="Kelpie" fill="#081937" fill-rule="evenodd"></path>
                    <rect id="Rectangle-4" x="0" y="97.7021277" width="14.5943574" height="14.4932765"></rect>
                    <rect id="Rectangle-4-Copy" x="0" y="0" width="14.5943574" height="14.4932765"></rect>
                    <rect id="Rectangle-4-Copy-2" x="224.60241" y="97.7021277" width="14.5943574" height="14.4932765"></rect>
                    <rect id="Rectangle-4-Copy-3" x="224.60241" y="0" width="14.5943574" height="14.4932765"></rect>
                </g>
                <rect id="Rectangle-4-Copy-6" x="0" y="57.1103448" width="17.7681285" height="17.7216896"></rect>
                <rect id="Rectangle-4-Copy-7" x="0" y="0" width="17.7681285" height="17.7216896"></rect>
                <rect id="Rectangle-4-Copy-5" x="389.718571" y="150.934483" width="17.7681285" height="17.7216896"></rect>
            </g>
        </g>
    </g>
</svg>